# xmcd
#
# Track frame offsets: 
#        150
#        11524
#        23750
#        36155
#        49687
#        60924
#        71744
#        84834
#        95633
#        105381
#        116839
#        126845
#        138324
#        149556
#
# Disc length: 2156 seconds
#
# Revision: 0
# Processed by: cddbd v1.5.2PL0 Copyright (c) Steve Scherf et al.
# Submitted via: ExactAudioCopy v0.99pb4
#
DISCID=ba086a0e
DTITLE=Ray Price - Big Hits and Favorites Disc 3
DYEAR=2008
DGENRE=Country
TTITLE0=Crazy Arms
TTITLE1=Run Boy
TTITLE2=Sweet Little Miss Blue Eyes
TTITLE3=Let Me Talk To You
TTITLE4=Oh Yes, Darling
TTITLE5=One Broken Heart (Don't Mean A Thing)
TTITLE6=You Never Will Be True
TTITLE7=You Done Me Wrong
TTITLE8=Call The Lord And He'll Be There
TTITLE9=A Man Called Porter
TTITLE10=I Can't Go Home Like This
TTITLE11=I Don't Want It On My Conscience
TTITLE12=Wasted Words
TTITLE13=I've Got A New Heartache
EXTD=
EXTT0=
EXTT1=
EXTT2=
EXTT3=
EXTT4=
EXTT5=
EXTT6=
EXTT7=
EXTT8=
EXTT9=
EXTT10=
EXTT11=
EXTT12=
EXTT13=
PLAYORDER=
